<svg xmlns="http://www.w3.org/2000/svg" id="Capa_1" enable-background="new 0 0 512 512" height="60" viewBox="0 0 512 512" width="60"><path d="m116 75h280v362h-280z" fill="#ffee78" transform="matrix(0 -1 1 0 0 512)"></path><path d="m256 116h181v280h-181z" fill="#fcd232" style="fill: rgb(255, 238, 120);"></path><path d="m437 101h-362c-8.284 0-15 6.716-15 15v280c0 8.284 6.716 15 15 15h362c8.284 0 15-6.716 15-15v-280c0-8.284-6.716-15-15-15zm-227 200v-90h92v90zm-30-105v45h-90v-50h90zm-90 75h90v45 5h-90zm242-75v-5h90v50h-90zm0 120v-45h90v50h-90zm90-155h-105c-8.284 0-15 6.716-15 15v5h-31v-28.787l21.213-21.213h129.787zm-172.213-30-4.394 4.394c-2.813 2.812-4.393 6.627-4.393 10.606v35h-31v-5c0-8.284-6.716-15-15-15h-105v-30zm-159.787 220h105c8.284 0 15-6.716 15-15v-5h31v28.787l-21.213 21.213h-129.787zm172.213 30 4.394-4.394c2.813-2.812 4.393-6.627 4.393-10.606v-35h31v5c0 8.284 6.716 15 15 15h105v30z" fill="#fcd232"></path><path d="m437 101h-181v110h46v90h-46v110h181c8.284 0 15-6.716 15-15v-280c0-8.284-6.716-15-15-15zm-15 280h-159.787l4.394-4.394c2.813-2.812 4.393-6.627 4.393-10.606v-35h31v5c0 8.284 6.716 15 15 15h105zm0-60h-90v-5-45h90zm0-80h-90v-45-5h90zm0-80h-105c-8.284 0-15 6.716-15 15v5h-31v-28.787l21.213-21.213h129.787z" fill="#f7b90f" style="fill: rgb(252, 210, 50);"></path></svg>