<?xml version="1.0" encoding="utf-8"?>
<!-- Generator: Adobe Illustrator 19.0.0, SVG Export Plug-In . SVG Version: 6.00 Build 0)  -->
<svg version="1.1" id="Layer_1" xmlns="http://www.w3.org/2000/svg" xmlns:xlink="http://www.w3.org/1999/xlink" x="0px" y="0px"
	 viewBox="0 0 1280 800" style="enable-background:new 0 0 1280 800;" xml:space="preserve">
<polygon id="XMLID_2_" style="fill:none;stroke:#999999;stroke-width:10;stroke-miterlimit:10;" points="423.3,377.1 440.1,342.1 
	420.9,308.4 459.3,313.6 485.4,284.9 492.3,323.1 527.7,339 493.6,357.4 489.4,395.9 461.3,369.1 "/>
<polygon id="XMLID_3_" style="fill:none;stroke:#999999;stroke-width:10;stroke-miterlimit:10;" points="379.3,432.1 407.4,458.9 
	411.6,420.3 445.7,401.9 410.3,386 403.4,347.8 377.3,376.5 338.9,371.4 358.1,405 341.3,440 "/>
<polygon id="XMLID_11_" style="fill:none;stroke:#999999;stroke-width:10;stroke-miterlimit:10;" points="431.3,272 459.4,298.8 
	463.6,260.2 497.7,241.8 462.3,225.9 455.4,187.8 429.3,216.5 390.9,211.3 410.1,245 393.3,279.9 "/>
<polygon id="XMLID_10_" style="fill:none;stroke:#999999;stroke-width:10;stroke-miterlimit:10;" points="266.3,419.9 294.4,446.7 
	298.6,408.2 332.7,389.8 297.3,373.8 290.4,335.7 264.3,364.4 225.9,359.2 245.1,392.9 228.3,427.8 "/>
<polygon id="XMLID_14_" style="fill:none;stroke:#999999;stroke-width:10;stroke-miterlimit:10;" points="475.3,487.9 503.4,514.6 
	507.6,476.1 541.7,457.7 506.3,441.8 499.4,403.6 473.3,432.3 434.9,427.2 454.1,460.8 437.3,495.8 "/>
<polygon id="XMLID_17_" style="fill:none;stroke:#999999;stroke-width:10;stroke-miterlimit:10;" points="549.3,300.8 577.4,327.6 
	581.6,289 615.7,270.6 580.3,254.7 573.4,216.5 547.3,245.3 508.9,240.1 528.1,273.7 511.3,308.7 "/>
<polygon id="XMLID_16_" style="fill:none;stroke:#999999;stroke-width:10;stroke-miterlimit:10;" points="516.3,200.7 544.4,227.5 
	548.6,188.9 582.7,170.6 547.3,154.6 540.4,116.5 514.3,145.2 475.9,140 495.1,173.7 478.3,208.6 "/>
<polygon id="XMLID_15_" style="fill:none;stroke:#999999;stroke-width:10;stroke-miterlimit:10;" points="308.3,232.6 336.4,259.4 
	340.6,220.9 374.7,202.5 339.3,186.6 332.4,148.4 306.3,177.1 267.9,171.9 287.1,205.6 270.3,240.6 "/>
<polygon id="XMLID_13_" style="fill:none;stroke:#999999;stroke-width:10;stroke-miterlimit:10;" points="393.3,168.6 421.4,195.4 
	425.6,156.8 459.7,138.4 424.3,122.5 417.4,84.3 391.3,113.1 352.9,107.9 372.1,141.5 355.3,176.5 "/>
<polygon id="XMLID_12_" style="fill:none;stroke:#999999;stroke-width:10;stroke-miterlimit:10;" points="234.3,328.5 262.4,355.3 
	266.6,316.7 300.7,298.3 265.3,282.4 258.4,244.3 232.3,273 193.9,267.8 213.1,301.5 196.3,336.4 "/>
<polygon id="XMLID_9_" style="fill:none;stroke:#999999;stroke-width:10;stroke-miterlimit:10;" points="555.3,426.4 583.4,453.2 
	587.6,414.7 621.7,396.3 586.3,380.4 579.4,342.2 553.3,370.9 514.9,365.7 534.1,399.4 517.3,434.4 "/>
<polygon id="XMLID_8_" style="fill:none;stroke:#999999;stroke-width:10;stroke-miterlimit:10;" points="646.3,230.4 674.4,257.2 
	678.6,218.6 712.7,200.2 677.3,184.3 670.4,146.1 644.3,174.9 605.9,169.7 625.1,203.3 608.3,238.3 "/>
<polygon id="XMLID_7_" style="fill:none;stroke:#999999;stroke-width:10;stroke-miterlimit:10;" points="641.3,358.3 669.4,385.1 
	673.6,346.5 707.7,328.1 672.3,312.2 665.4,274.1 639.3,302.8 600.9,297.6 620.1,331.3 603.3,366.2 "/>
<polygon id="XMLID_6_" style="fill:none;stroke:#999999;stroke-width:10;stroke-miterlimit:10;" points="346.3,336.2 374.4,363 
	378.6,324.4 412.7,306 377.3,290.1 370.4,252 344.3,280.7 305.9,275.5 325.1,309.2 308.3,344.1 "/>
<polygon id="XMLID_5_" style="fill:none;stroke:#999999;stroke-width:10;stroke-miterlimit:10;" points="352.3,534.2 380.4,561 
	384.6,522.5 418.7,504.1 383.3,488.2 376.4,450 350.3,478.7 311.9,473.5 331.1,507.2 314.3,542.2 "/>
<polygon id="XMLID_4_" style="fill:none;stroke:#999999;stroke-width:10;stroke-miterlimit:10;" points="563.3,546.2 591.4,573 
	595.6,534.4 629.7,516 594.3,500.1 587.4,461.9 561.3,490.6 522.9,485.5 542.1,519.1 525.3,554.1 "/>
<polygon id="XMLID_35_" style="fill:none;stroke:#999999;stroke-width:10;stroke-miterlimit:10;" points="880.6,410.1 912.2,387.6 
	911.5,348.8 942.7,371.9 979.4,359.2 967.1,396 990.4,427 951.6,426.7 929.4,458.5 917.7,421.5 "/>
<polygon id="XMLID_34_" style="fill:none;stroke:#999999;stroke-width:10;stroke-miterlimit:10;" points="815.5,437.1 827.2,474.1 
	849.4,442.3 888.2,442.7 864.9,411.7 877.2,374.9 840.5,387.5 809.3,364.4 810,403.2 778.4,425.8 "/>
<polygon id="XMLID_33_" style="fill:none;stroke:#999999;stroke-width:10;stroke-miterlimit:10;" points="938.2,321.9 949.9,358.9 
	972.1,327.1 1010.9,327.4 987.6,296.5 999.9,259.7 963.2,272.3 932,249.2 932.7,288 901.1,310.5 "/>
<polygon id="XMLID_32_" style="fill:none;stroke:#999999;stroke-width:10;stroke-miterlimit:10;" points="722.3,387 734,424 
	756.3,392.3 795.1,392.6 771.7,361.6 784,324.8 747.3,337.4 716.1,314.4 716.8,353.2 685.2,375.7 "/>
<polygon id="XMLID_31_" style="fill:none;stroke:#999999;stroke-width:10;stroke-miterlimit:10;" points="872.8,532.3 884.4,569.2 
	906.7,537.5 945.5,537.8 922.2,506.8 934.4,470 897.8,482.6 866.6,459.6 867.2,498.4 835.7,520.9 "/>
<polygon id="XMLID_30_" style="fill:none;stroke:#999999;stroke-width:10;stroke-miterlimit:10;" points="1027.7,404 1039.4,441 
	1061.7,409.2 1100.4,409.5 1077.1,378.5 1089.4,341.7 1052.7,354.4 1021.5,331.3 1022.2,370.1 990.6,392.6 "/>
<polygon id="XMLID_29_" style="fill:none;stroke:#999999;stroke-width:10;stroke-miterlimit:10;" points="1047,300.4 1058.7,337.4 
	1080.9,305.6 1119.7,305.9 1096.4,274.9 1108.7,238.1 1072,250.8 1040.8,227.7 1041.5,266.5 1009.9,289 "/>
<polygon id="XMLID_28_" style="fill:none;stroke:#999999;stroke-width:10;stroke-miterlimit:10;" points="849.3,228.2 861,265.2 
	883.3,233.4 922.1,233.7 898.7,202.7 911,165.9 874.4,178.6 843.2,155.5 843.8,194.3 812.3,216.8 "/>
<polygon id="XMLID_27_" style="fill:none;stroke:#999999;stroke-width:10;stroke-miterlimit:10;" points="954.7,213 966.4,250 
	988.6,218.2 1027.4,218.5 1004.1,187.5 1016.4,150.7 979.7,163.4 948.5,140.3 949.2,179.1 917.6,201.6 "/>
<polygon id="XMLID_26_" style="fill:none;stroke:#999999;stroke-width:10;stroke-miterlimit:10;" points="736.3,274.5 748,311.5 
	770.3,279.7 809,280.1 785.7,249.1 798,212.3 761.3,224.9 730.1,201.9 730.8,240.6 699.2,263.2 "/>
<polygon id="XMLID_25_" style="fill:none;stroke:#999999;stroke-width:10;stroke-miterlimit:10;" points="972.5,517 984.1,554 
	1006.4,522.2 1045.2,522.5 1021.8,491.5 1034.1,454.7 997.5,467.4 966.3,444.3 966.9,483.1 935.4,505.6 "/>
<polygon id="XMLID_24_" style="fill:none;stroke:#999999;stroke-width:10;stroke-miterlimit:10;" points="1135.2,385 1146.8,421.9 
	1169.1,390.2 1207.9,390.5 1184.6,359.5 1196.9,322.7 1160.2,335.3 1129,312.3 1129.6,351.1 1098.1,373.6 "/>
<polygon id="XMLID_23_" style="fill:none;stroke:#999999;stroke-width:10;stroke-miterlimit:10;" points="1083.3,500.1 
	1094.9,537.1 1117.2,505.4 1156,505.7 1132.7,474.7 1145,437.9 1108.3,450.5 1077.1,427.5 1077.8,466.2 1046.2,488.8 "/>
<polygon id="XMLID_22_" style="fill:none;stroke:#999999;stroke-width:10;stroke-miterlimit:10;" points="832.8,337.2 844.4,374.2 
	866.7,342.4 905.5,342.8 882.2,311.8 894.5,275 857.8,287.6 826.6,264.5 827.2,303.3 795.7,325.9 "/>
<polygon id="XMLID_21_" style="fill:none;stroke:#999999;stroke-width:10;stroke-miterlimit:10;" points="742.6,513.6 754.3,550.6 
	776.6,518.9 815.4,519.2 792,488.2 804.3,451.4 767.6,464 736.4,441 737.1,479.8 705.5,502.3 "/>
<polygon id="XMLID_20_" style="fill:none;stroke:#999999;stroke-width:10;stroke-miterlimit:10;" points="921.8,625.7 933.5,662.7 
	955.7,631 994.5,631.3 971.2,600.3 983.5,563.5 946.8,576.1 915.6,553.1 916.3,591.9 884.7,614.4 "/>
<polygon id="XMLID_52_" style="fill:none;stroke:#999999;stroke-width:10;stroke-miterlimit:10;" points="712.6,157.1 744.2,134.6 
	743.5,95.8 774.7,118.9 811.4,106.2 799.1,143 822.4,174 783.6,173.7 761.4,205.5 749.7,168.5 "/>
<polygon id="XMLID_53_" style="fill:none;stroke:#999999;stroke-width:10;stroke-miterlimit:10;" points="650.6,88.1 682.2,65.6 
	681.5,26.8 712.7,49.9 749.4,37.2 737.1,74 760.4,105 721.6,104.7 699.4,136.5 687.7,99.5 "/>
<polygon id="XMLID_36_" style="fill:none;stroke:#999999;stroke-width:10;stroke-miterlimit:10;" points="822.6,110.1 854.2,87.6 
	853.5,48.8 884.7,71.9 921.4,59.2 909.1,96 932.4,127 893.6,126.7 871.4,158.5 859.7,121.5 "/>
<polygon id="XMLID_77_" style="fill:none;stroke:#999999;stroke-width:10;stroke-miterlimit:10;" points="754.5,23.6 789.9,7.7 
	796.9,-30.4 822.9,-1.6 861.4,-6.7 842,26.9 858.8,61.9 820.8,53.9 792.7,80.6 788.6,42 "/>
<polygon id="XMLID_104_" style="fill:none;stroke:#999999;stroke-width:10;stroke-miterlimit:10;" points="674.5,-34.4 709.9,-50.3 
	716.9,-88.4 742.9,-59.6 781.4,-64.7 762,-31.1 778.8,3.9 740.8,-4.1 712.7,22.6 708.6,-16 "/>
<polygon id="XMLID_95_" style="fill:none;stroke:#999999;stroke-width:10;stroke-miterlimit:10;" points="887.6,-1.9 919.2,-24.4 
	918.5,-63.2 949.7,-40.1 986.4,-52.8 974.1,-16 997.4,15 958.6,14.7 936.4,46.5 924.7,9.5 "/>
<polygon id="XMLID_97_" style="fill:none;stroke:#999999;stroke-width:10;stroke-miterlimit:10;" points="1010.6,-21.9 
	1042.2,-44.4 1041.5,-83.2 1072.7,-60.1 1109.4,-72.8 1097.1,-36 1120.4,-5 1081.6,-5.3 1059.4,26.5 1047.7,-10.5 "/>
<polygon id="XMLID_92_" style="fill:none;stroke:#999999;stroke-width:10;stroke-miterlimit:10;" points="565.6,4.1 597.2,-18.4 
	596.5,-57.2 627.7,-34.1 664.4,-46.8 652.1,-10 675.4,21 636.6,20.7 614.4,52.5 602.7,15.5 "/>
<polygon id="XMLID_93_" style="fill:none;stroke:#999999;stroke-width:10;stroke-miterlimit:10;" points="454.6,-21.9 486.2,-44.4 
	485.5,-83.2 516.7,-60.1 553.4,-72.8 541.1,-36 564.4,-5 525.6,-5.3 503.4,26.5 491.7,-10.5 "/>
<polygon id="XMLID_94_" style="fill:none;stroke:#999999;stroke-width:10;stroke-miterlimit:10;" points="186.6,-14.9 218.2,-37.4 
	217.5,-76.2 248.7,-53.1 285.4,-65.8 273.1,-29 296.4,2 257.6,1.7 235.4,33.5 223.7,-3.5 "/>
<polygon id="XMLID_54_" style="fill:none;stroke:#999999;stroke-width:10;stroke-miterlimit:10;" points="1028.6,185.1 
	1060.2,162.6 1059.5,123.8 1090.7,146.9 1127.4,134.2 1115.1,171 1138.4,202 1099.6,201.7 1077.4,233.5 1065.7,196.5 "/>
<polygon id="XMLID_58_" style="fill:none;stroke:#999999;stroke-width:10;stroke-miterlimit:10;" points="1050.6,80.1 1082.2,57.6 
	1081.5,18.8 1112.7,41.9 1149.4,29.2 1137.1,66 1160.4,97 1121.6,96.7 1099.4,128.5 1087.7,91.5 "/>
<polygon id="XMLID_78_" style="fill:none;stroke:#999999;stroke-width:10;stroke-miterlimit:10;" points="1160.6,64.1 1192.2,41.6 
	1191.5,2.8 1222.7,25.9 1259.4,13.2 1247.1,50 1270.4,81 1231.6,80.7 1209.4,112.5 1197.7,75.5 "/>
<polygon id="XMLID_56_" style="fill:none;stroke:#999999;stroke-width:10;stroke-miterlimit:10;" points="1115.6,270.1 
	1147.2,247.6 1146.5,208.8 1177.7,231.9 1214.4,219.2 1202.1,256 1225.4,287 1186.6,286.7 1164.4,318.5 1152.7,281.5 "/>
<polygon id="XMLID_80_" style="fill:none;stroke:#999999;stroke-width:10;stroke-miterlimit:10;" points="1227.6,228.1 
	1259.2,205.6 1258.5,166.8 1289.7,189.9 1326.4,177.2 1314.1,214 1337.4,245 1298.6,244.7 1276.4,276.5 1264.7,239.5 "/>
<polygon id="XMLID_105_" style="fill:none;stroke:#999999;stroke-width:10;stroke-miterlimit:10;" points="1256.6,132.1 
	1288.2,109.6 1287.5,70.8 1318.7,93.9 1355.4,81.2 1343.1,118 1366.4,149 1327.6,148.7 1305.4,180.5 1293.7,143.5 "/>
<polygon id="XMLID_106_" style="fill:none;stroke:#999999;stroke-width:10;stroke-miterlimit:10;" points="1116.6,-39.9 
	1148.2,-62.4 1147.5,-101.2 1178.7,-78.1 1215.4,-90.8 1203.1,-54 1226.4,-23 1187.6,-23.3 1165.4,8.5 1153.7,-28.5 "/>
<polygon id="XMLID_79_" style="fill:none;stroke:#999999;stroke-width:10;stroke-miterlimit:10;" points="1197.6,349.1 
	1229.2,326.6 1228.5,287.8 1259.7,310.9 1296.4,298.2 1284.1,335 1307.4,366 1268.6,365.7 1246.4,397.5 1234.7,360.5 "/>
<polygon id="XMLID_60_" style="fill:none;stroke:#999999;stroke-width:10;stroke-miterlimit:10;" points="156.6,185.1 188.2,162.6 
	187.5,123.8 218.7,146.9 255.4,134.2 243.1,171 266.4,202 227.6,201.7 205.4,233.5 193.7,196.5 "/>
<polygon id="XMLID_69_" style="fill:none;stroke:#999999;stroke-width:10;stroke-miterlimit:10;" points="60.6,240.1 92.2,217.6 
	91.5,178.8 122.7,201.9 159.4,189.2 147.1,226 170.4,257 131.6,256.7 109.4,288.5 97.7,251.5 "/>
<polygon id="XMLID_19_" style="fill:none;stroke:#999999;stroke-width:10;stroke-miterlimit:10;" points="-11.4,310.1 20.2,287.6 
	19.5,248.8 50.7,271.9 87.4,259.2 75.1,296 98.4,327 59.6,326.7 37.4,358.5 25.7,321.5 "/>
<polygon id="XMLID_74_" style="fill:none;stroke:#999999;stroke-width:10;stroke-miterlimit:10;" points="-19.4,426.1 12.2,403.6 
	11.5,364.8 42.7,387.9 79.4,375.2 67.1,412 90.4,443 51.6,442.7 29.4,474.5 17.7,437.5 "/>
<polygon id="XMLID_75_" style="fill:none;stroke:#999999;stroke-width:10;stroke-miterlimit:10;" points="-13.4,535.1 18.2,512.6 
	17.5,473.8 48.7,496.9 85.4,484.2 73.1,521 96.4,552 57.6,551.7 35.4,583.5 23.7,546.5 "/>
<polygon id="XMLID_68_" style="fill:none;stroke:#999999;stroke-width:10;stroke-miterlimit:10;" points="11.6,136.1 43.2,113.6 
	42.5,74.8 73.7,97.9 110.4,85.2 98.1,122 121.4,153 82.6,152.7 60.4,184.5 48.7,147.5 "/>
<polygon id="XMLID_103_" style="fill:none;stroke:#999999;stroke-width:10;stroke-miterlimit:10;" points="-77.4,87.1 -45.8,64.6 
	-46.5,25.8 -15.3,48.9 21.4,36.2 9.1,73 32.4,104 -6.4,103.7 -28.6,135.5 -40.3,98.5 "/>
<polygon id="XMLID_98_" style="fill:none;stroke:#999999;stroke-width:10;stroke-miterlimit:10;" points="-62.4,213.1 -30.8,190.6 
	-31.5,151.8 -0.3,174.9 36.4,162.2 24.1,199 47.4,230 8.6,229.7 -13.6,261.5 -25.3,224.5 "/>
<polygon id="XMLID_99_" style="fill:none;stroke:#999999;stroke-width:10;stroke-miterlimit:10;" points="-89.4,613.1 -57.8,590.6 
	-58.5,551.8 -27.3,574.9 9.4,562.2 -2.9,599 20.4,630 -18.4,629.7 -40.6,661.5 -52.3,624.5 "/>
<polygon id="XMLID_18_" style="fill:none;stroke:#999999;stroke-width:10;stroke-miterlimit:10;" points="18.6,26.1 50.2,3.6 
	49.5,-35.2 80.7,-12.1 117.4,-24.8 105.1,12 128.4,43 89.6,42.7 67.4,74.5 55.7,37.5 "/>
<polygon id="XMLID_67_" style="fill:none;stroke:#999999;stroke-width:10;stroke-miterlimit:10;" points="108.6,75.1 140.2,52.6 
	139.5,13.8 170.7,36.9 207.4,24.2 195.1,61 218.4,92 179.6,91.7 157.4,123.5 145.7,86.5 "/>
<polygon id="XMLID_76_" style="fill:none;stroke:#999999;stroke-width:10;stroke-miterlimit:10;" points="341.6,35.1 373.2,12.6 
	372.5,-26.2 403.7,-3.1 440.4,-15.8 428.1,21 451.4,52 412.6,51.7 390.4,83.5 378.7,46.5 "/>
<polygon id="XMLID_62_" style="fill:none;stroke:#999999;stroke-width:10;stroke-miterlimit:10;" points="83.6,583.1 115.2,560.6 
	114.5,521.8 145.7,544.9 182.4,532.2 170.1,569 193.4,600 154.6,599.7 132.4,631.5 120.7,594.5 "/>
<polygon id="XMLID_73_" style="fill:none;stroke:#999999;stroke-width:10;stroke-miterlimit:10;" points="16.6,657.1 48.2,634.6 
	47.5,595.8 78.7,618.9 115.4,606.2 103.1,643 126.4,674 87.6,673.7 65.4,705.5 53.7,668.5 "/>
<polygon id="XMLID_66_" style="fill:none;stroke:#999999;stroke-width:10;stroke-miterlimit:10;" points="119.6,712.1 151.2,689.6 
	150.5,650.8 181.7,673.9 218.4,661.2 206.1,698 229.4,729 190.6,728.7 168.4,760.5 156.7,723.5 "/>
<polygon id="XMLID_65_" style="fill:none;stroke:#999999;stroke-width:10;stroke-miterlimit:10;" points="88.3,472 118,447.1 
	114.3,408.5 147.2,429 182.8,413.5 173.4,451.2 199.1,480.2 160.4,483 140.8,516.4 126.2,480.4 "/>
<polygon id="XMLID_64_" style="fill:none;stroke:#999999;stroke-width:10;stroke-miterlimit:10;" points="266.6,739.1 298.2,716.6 
	297.5,677.8 328.7,700.9 365.4,688.2 353.1,725 376.4,756 337.6,755.7 315.4,787.5 303.7,750.5 "/>
<polygon id="XMLID_63_" style="fill:none;stroke:#999999;stroke-width:10;stroke-miterlimit:10;" points="185.6,630.1 217.2,607.6 
	216.5,568.8 247.7,591.9 284.4,579.2 272.1,616 295.4,647 256.6,646.7 234.4,678.5 222.7,641.5 "/>
<polygon id="XMLID_61_" style="fill:none;stroke:#999999;stroke-width:10;stroke-miterlimit:10;" points="88.6,352.1 120.2,329.6 
	119.5,290.8 150.7,313.9 187.4,301.2 175.1,338 198.4,369 159.6,368.7 137.4,400.5 125.7,363.5 "/>
<polygon id="XMLID_70_" style="fill:none;stroke:#999999;stroke-width:10;stroke-miterlimit:10;" points="1158.6,472.1 
	1190.2,449.6 1189.5,410.8 1220.7,433.9 1257.4,421.2 1245.1,458 1268.4,489 1229.6,488.7 1207.4,520.5 1195.7,483.5 "/>
<polygon id="XMLID_81_" style="fill:none;stroke:#999999;stroke-width:10;stroke-miterlimit:10;" points="1229.6,565.1 
	1261.2,542.6 1260.5,503.8 1291.7,526.9 1328.4,514.2 1316.1,551 1339.4,582 1300.6,581.7 1278.4,613.5 1266.7,576.5 "/>
<polygon id="XMLID_107_" style="fill:none;stroke:#999999;stroke-width:10;stroke-miterlimit:10;" points="1268.6,457.1 
	1300.2,434.6 1299.5,395.8 1330.7,418.9 1367.4,406.2 1355.1,443 1378.4,474 1339.6,473.7 1317.4,505.5 1305.7,468.5 "/>
<polygon id="XMLID_59_" style="fill:none;stroke:#999999;stroke-width:10;stroke-miterlimit:10;" points="1137.6,168.1 
	1169.2,145.6 1168.5,106.8 1199.7,129.9 1236.4,117.2 1224.1,154 1247.4,185 1208.6,184.7 1186.4,216.5 1174.7,179.5 "/>
<polygon id="XMLID_57_" style="fill:none;stroke:#999999;stroke-width:10;stroke-miterlimit:10;" points="232.6,88.1 264.2,65.6 
	263.5,26.8 294.7,49.9 331.4,37.2 319.1,74 342.4,105 303.6,104.7 281.4,136.5 269.7,99.5 "/>
<polygon id="XMLID_55_" style="fill:none;stroke:#999999;stroke-width:10;stroke-miterlimit:10;" points="934.6,97.1 966.2,74.6 
	965.5,35.8 996.7,58.9 1033.4,46.2 1021.1,83 1044.4,114 1005.6,113.7 983.4,145.5 971.7,108.5 "/>
<polygon id="XMLID_51_" style="fill:none;stroke:#999999;stroke-width:10;stroke-miterlimit:10;" points="225.5,525.1 237.2,562.1 
	259.4,530.3 298.2,530.7 274.9,499.7 287.2,462.9 250.5,475.5 219.3,452.4 220,491.2 188.4,513.8 "/>
<polygon id="XMLID_50_" style="fill:none;stroke:#999999;stroke-width:10;stroke-miterlimit:10;" points="793.2,614.9 804.9,651.9 
	827.1,620.1 865.9,620.4 842.6,589.5 854.9,552.7 818.2,565.3 787,542.2 787.7,581 756.1,603.5 "/>
<polygon id="XMLID_49_" style="fill:none;stroke:#999999;stroke-width:10;stroke-miterlimit:10;" points="471.3,95 483,132 
	505.3,100.3 544.1,100.6 520.7,69.6 533,32.8 496.3,45.4 465.1,22.4 465.8,61.2 434.2,83.7 "/>
<polygon id="XMLID_48_" style="fill:none;stroke:#999999;stroke-width:10;stroke-miterlimit:10;" points="331.8,635.3 343.4,672.2 
	365.7,640.5 404.5,640.8 381.2,609.8 393.4,573 356.8,585.6 325.6,562.6 326.2,601.4 294.7,623.9 "/>
<polygon id="XMLID_47_" style="fill:none;stroke:#999999;stroke-width:10;stroke-miterlimit:10;" points="857.7,708 869.4,745 
	891.7,713.2 930.4,713.5 907.1,682.5 919.4,645.7 882.7,658.4 851.5,635.3 852.2,674.1 820.6,696.6 "/>
<polygon id="XMLID_46_" style="fill:none;stroke:#999999;stroke-width:10;stroke-miterlimit:10;" points="661,606.4 672.7,643.4 
	694.9,611.6 733.7,611.9 710.4,580.9 722.7,544.1 686,556.8 654.8,533.7 655.5,572.5 623.9,595 "/>
<polygon id="XMLID_45_" style="fill:none;stroke:#999999;stroke-width:10;stroke-miterlimit:10;" points="644.3,476.2 656,513.2 
	678.3,481.4 717.1,481.7 693.7,450.7 706,413.9 669.4,426.6 638.2,403.5 638.8,442.3 607.3,464.8 "/>
<polygon id="XMLID_44_" style="fill:none;stroke:#999999;stroke-width:10;stroke-miterlimit:10;" points="441.7,599 453.4,636 
	475.6,604.2 514.4,604.5 491.1,573.5 503.4,536.7 466.7,549.4 435.5,526.3 436.2,565.1 404.6,587.6 "/>
<polygon id="XMLID_43_" style="fill:none;stroke:#999999;stroke-width:10;stroke-miterlimit:10;" points="543.3,653.5 555,690.5 
	577.3,658.7 616,659.1 592.7,628.1 605,591.3 568.3,603.9 537.1,580.9 537.8,619.6 506.2,642.2 "/>
<polygon id="XMLID_42_" style="fill:none;stroke:#999999;stroke-width:10;stroke-miterlimit:10;" points="980.5,726 992.1,763 
	1014.4,731.2 1053.2,731.5 1029.8,700.5 1042.1,663.7 1005.5,676.4 974.3,653.3 974.9,692.1 943.4,714.6 "/>
<polygon id="XMLID_84_" style="fill:none;stroke:#999999;stroke-width:10;stroke-miterlimit:10;" points="1040.5,823 1052.1,860 
	1074.4,828.2 1113.2,828.5 1089.8,797.5 1102.1,760.7 1065.5,773.4 1034.3,750.3 1034.9,789.1 1003.4,811.6 "/>
<polygon id="XMLID_85_" style="fill:none;stroke:#999999;stroke-width:10;stroke-miterlimit:10;" points="915.5,798 927.1,835 
	949.4,803.2 988.2,803.5 964.8,772.5 977.1,735.7 940.5,748.4 909.3,725.3 909.9,764.1 878.4,786.6 "/>
<polygon id="XMLID_86_" style="fill:none;stroke:#999999;stroke-width:10;stroke-miterlimit:10;" points="795.5,819 807.1,856 
	829.4,824.2 868.2,824.5 844.8,793.5 857.1,756.7 820.5,769.4 789.3,746.3 789.9,785.1 758.4,807.6 "/>
<polygon id="XMLID_96_" style="fill:none;stroke:#999999;stroke-width:10;stroke-miterlimit:10;" points="679.5,823 691.1,860 
	713.4,828.2 752.2,828.5 728.8,797.5 741.1,760.7 704.5,773.4 673.3,750.3 673.9,789.1 642.4,811.6 "/>
<polygon id="XMLID_101_" style="fill:none;stroke:#999999;stroke-width:10;stroke-miterlimit:10;" points="574.5,861 586.1,898 
	608.4,866.2 647.2,866.5 623.8,835.5 636.1,798.7 599.5,811.4 568.3,788.3 568.9,827.1 537.4,849.6 "/>
<polygon id="XMLID_87_" style="fill:none;stroke:#999999;stroke-width:10;stroke-miterlimit:10;" points="527.5,763 539.1,800 
	561.4,768.2 600.2,768.5 576.8,737.5 589.1,700.7 552.5,713.4 521.3,690.3 521.9,729.1 490.4,751.6 "/>
<polygon id="XMLID_88_" style="fill:none;stroke:#999999;stroke-width:10;stroke-miterlimit:10;" points="415.5,838 427.1,875 
	449.4,843.2 488.2,843.5 464.8,812.5 477.1,775.7 440.5,788.4 409.3,765.3 409.9,804.1 378.4,826.6 "/>
<polygon id="XMLID_90_" style="fill:none;stroke:#999999;stroke-width:10;stroke-miterlimit:10;" points="74.5,792 86.1,829 
	108.4,797.2 147.2,797.5 123.8,766.5 136.1,729.7 99.5,742.4 68.3,719.3 68.9,758.1 37.4,780.6 "/>
<polygon id="XMLID_91_" style="fill:none;stroke:#999999;stroke-width:10;stroke-miterlimit:10;" points="-24.5,748 -12.9,785 
	9.4,753.2 48.2,753.5 24.8,722.5 37.1,685.7 0.5,698.4 -30.7,675.3 -30.1,714.1 -61.6,736.6 "/>
<polygon id="XMLID_89_" style="fill:none;stroke:#999999;stroke-width:10;stroke-miterlimit:10;" points="216.5,821 228.1,858 
	250.4,826.2 289.2,826.5 265.8,795.5 278.1,758.7 241.5,771.4 210.3,748.3 210.9,787.1 179.4,809.6 "/>
<polygon id="XMLID_100_" style="fill:none;stroke:#999999;stroke-width:10;stroke-miterlimit:10;" points="313.4,873.5 330.2,908.4 
	347.7,873.7 386.1,868.5 358.6,841.2 365.4,803 330.9,820.8 296.7,802.5 303,840.7 275,867.6 "/>
<polygon id="XMLID_72_" style="fill:none;stroke:#999999;stroke-width:10;stroke-miterlimit:10;" points="1101.5,713 1113.1,750 
	1135.4,718.2 1174.2,718.5 1150.8,687.5 1163.1,650.7 1126.5,663.4 1095.3,640.3 1095.9,679.1 1064.4,701.6 "/>
<polygon id="XMLID_83_" style="fill:none;stroke:#999999;stroke-width:10;stroke-miterlimit:10;" points="1154.5,803 1166.1,840 
	1188.4,808.2 1227.2,808.5 1203.8,777.5 1216.1,740.7 1179.5,753.4 1148.3,730.3 1148.9,769.1 1117.4,791.6 "/>
<polygon id="XMLID_102_" style="fill:none;stroke:#999999;stroke-width:10;stroke-miterlimit:10;" points="1267.5,796 1279.1,833 
	1301.4,801.2 1340.2,801.5 1316.8,770.5 1329.1,733.7 1292.5,746.4 1261.3,723.3 1261.9,762.1 1230.4,784.6 "/>
<polygon id="XMLID_41_" style="fill:none;stroke:#999999;stroke-width:10;stroke-miterlimit:10;" points="745.2,722 756.8,758.9 
	779.1,727.2 817.9,727.5 794.6,696.5 806.9,659.7 770.2,672.3 739,649.3 739.6,688.1 708.1,710.6 "/>
<polygon id="XMLID_40_" style="fill:none;stroke:#999999;stroke-width:10;stroke-miterlimit:10;" points="1044.3,606.1 
	1055.9,643.1 1078.2,611.4 1117,611.7 1093.7,580.7 1106,543.9 1069.3,556.5 1038.1,533.5 1038.8,572.2 1007.2,594.8 "/>
<polygon id="XMLID_71_" style="fill:none;stroke:#999999;stroke-width:10;stroke-miterlimit:10;" points="1159.3,598.1 
	1170.9,635.1 1193.2,603.4 1232,603.7 1208.7,572.7 1221,535.9 1184.3,548.5 1153.1,525.5 1153.8,564.2 1122.2,586.8 "/>
<polygon id="XMLID_82_" style="fill:none;stroke:#999999;stroke-width:10;stroke-miterlimit:10;" points="1218.3,699.1 
	1229.9,736.1 1252.2,704.4 1291,704.7 1267.7,673.7 1280,636.9 1243.3,649.5 1212.1,626.5 1212.8,665.2 1181.2,687.8 "/>
<polygon id="XMLID_39_" style="fill:none;stroke:#999999;stroke-width:10;stroke-miterlimit:10;" points="647.8,717.2 659.4,754.2 
	681.7,722.4 720.5,722.8 697.2,691.8 709.5,655 672.8,667.6 641.6,644.5 642.2,683.3 610.7,705.9 "/>
<polygon id="XMLID_38_" style="fill:none;stroke:#999999;stroke-width:10;stroke-miterlimit:10;" points="416.6,725.6 428.3,762.6 
	450.6,730.9 489.4,731.2 466,700.2 478.3,663.4 441.6,676 410.4,653 411.1,691.8 379.5,714.3 "/>
<polygon id="XMLID_37_" style="fill:none;stroke:#999999;stroke-width:10;stroke-miterlimit:10;" points="584.8,113.7 596.5,150.7 
	618.7,119 657.5,119.3 634.2,88.3 646.5,51.5 609.8,64.1 578.6,41.1 579.3,79.9 547.7,102.4 "/>
</svg>
