<svg xmlns="http://www.w3.org/2000/svg" xmlnsXlink="http://www.w3.org/1999/xlink" viewBox="0 0 1280 800" xmlnsv="https://vecta.io/nano"><g fill="none" stroke="#999" stroke-width="10" stroke-miterlimit="10"><path d="M423.3 377.1l16.8-35-19.2-33.7 38.4 5.2 26.1-28.7 6.9 38.2 35.4 15.9-34.1 18.4-4.2 38.5-28.1-26.8zm-44 55l28.1 26.8 4.2-38.6 34.1-18.4-35.4-15.9-6.9-38.2-26.1 28.7-38.4-5.1 19.2 33.6-16.8 35z"/><use xlinkHref="#B"/><path d="M266.3 419.9l28.1 26.8 4.2-38.5 34.1-18.4-35.4-16-6.9-38.1-26.1 28.7-38.4-5.2 19.2 33.7-16.8 34.9zm209 68l28.1 26.7 4.2-38.5 34.1-18.4-35.4-15.9-6.9-38.2-26.1 28.7-38.4-5.1 19.2 33.6-16.8 35z"/><use xlinkHref="#C"/><path d="M516.3 200.7l28.1 26.8 4.2-38.6 34.1-18.3-35.4-16-6.9-38.1-26.1 28.7-38.4-5.2 19.2 33.7-16.8 34.9z"/><use xlinkHref="#D"/><use xlinkHref="#C" x="-156" y="-132.2"/><use xlinkHref="#B" x="-197" y="56.5"/><use xlinkHref="#D" x="247" y="193.8"/><use xlinkHref="#C" x="97" y="-70.4"/><use xlinkHref="#B" x="210" y="86.3"/><use xlinkHref="#B" x="-85" y="64.2"/><use xlinkHref="#D" x="44" y="301.6"/><path d="M563.3 546.2l28.1 26.8 4.2-38.6 34.1-18.4-35.4-15.9-6.9-38.2-26.1 28.7-38.4-5.1 19.2 33.6-16.8 35z"/><use xlinkHref="#E"/><path d="M815.5 437.1l11.7 37 22.2-31.8 38.8.4-23.3-31 12.3-36.8-36.7 12.6-31.2-23.1.7 38.8-31.6 22.6zm122.7-115.2l11.7 37 22.2-31.8 38.8.3-23.3-30.9 12.3-36.8-36.7 12.6-31.2-23.1.7 38.8-31.6 22.5z"/><use xlinkHref="#F"/><path d="M872.8 532.3l11.6 36.9 22.3-31.7 38.8.3-23.3-31 12.2-36.8-36.6 12.6-31.2-23 .6 38.8-31.5 22.5zM1027.7 404l11.7 37 22.3-31.8 38.7.3-23.3-31 12.3-36.8-36.7 12.7-31.2-23.1.7 38.8-31.6 22.5z"/><use xlinkHref="#G"/><path d="M849.3 228.2l11.7 37 22.3-31.8 38.8.3-23.4-31 12.3-36.8-36.6 12.7-31.2-23.1.6 38.8-31.5 22.5z"/><use xlinkHref="#G" x="-92.3" y="-87.4"/><path d="M736.3 274.5l11.7 37 22.3-31.8 38.7.4-23.3-31 12.3-36.8-36.7 12.6-31.2-23 .7 38.7-31.6 22.6z"/><use xlinkHref="#H"/><path d="M1135.2 385l11.6 36.9 22.3-31.7 38.8.3-23.3-31 12.3-36.8-36.7 12.6-31.2-23 .6 38.8-31.5 22.5z"/><use xlinkHref="#I"/><path d="M832.8 337.2l11.6 37 22.3-31.8 38.8.4-23.3-31 12.3-36.8-36.7 12.6-31.2-23.1.6 38.8-31.5 22.6z"/><use xlinkHref="#F" x="20.3" y="126.6"/><path d="M921.8 625.7l11.7 37 22.2-31.7 38.8.3-23.3-31 12.3-36.8-36.7 12.6-31.2-23 .7 38.8-31.6 22.5z"/><use xlinkHref="#E" x="-168" y="-253"/><path d="M650.6 88.1l31.6-22.5-.7-38.8 31.2 23.1 36.7-12.7L737.1 74l23.3 31-38.8-.3-22.2 31.8-11.7-37zm172 22l31.6-22.5-.7-38.8 31.2 23.1 36.7-12.7L909.1 96l23.3 31-38.8-.3-22.2 31.8-11.7-37z"/><path d="M754.5 23.6l35.4-15.9 7-38.1 26 28.8 38.5-5.1L842 26.9l16.8 35-38-8-28.1 26.7-4.1-38.6zm-80-58l35.4-15.9 7-38.1 26 28.8 38.5-5.1L762-31.1l16.8 35-38-8-28.1 26.7-4.1-38.6zM887.6-1.9l31.6-22.5-.7-38.8 31.2 23.1 36.7-12.7L974.1-16l23.3 31-38.8-.3-22.2 31.8-11.7-37z"/><use xlinkHref="#E" x="130" y="-432"/><path d="M565.6 4.1l31.6-22.5-.7-38.8 31.2 23.1 36.7-12.7L652.1-10l23.3 31-38.8-.3-22.2 31.8-11.7-37zm-111-26l31.6-22.5-.7-38.8 31.2 23.1 36.7-12.7L541.1-36l23.3 31-38.8-.3-22.2 31.8-11.7-37zm-268 7l31.6-22.5-.7-38.8 31.2 23.1 36.7-12.7L273.1-29l23.3 31-38.8-.3-22.2 31.8-11.7-37z"/><use xlinkHref="#E" x="148" y="-225"/><use xlinkHref="#E" x="170" y="-330"/><use xlinkHref="#E" x="280" y="-346"/><use xlinkHref="#E" x="235" y="-140"/><use xlinkHref="#E" x="347" y="-182"/><use xlinkHref="#E" x="376" y="-278"/><use xlinkHref="#E" x="236" y="-450"/><use xlinkHref="#E" x="317" y="-61"/><use xlinkHref="#E" x="-724" y="-225"/><use xlinkHref="#E" x="-820" y="-170"/><path d="M-11.4 310.1l31.6-22.5-.7-38.8 31.2 23.1 36.7-12.7L75.1 296l23.3 31-38.8-.3-22.2 31.8-11.7-37zm-8 116l31.6-22.5-.7-38.8 31.2 23.1 36.7-12.7L67.1 412l23.3 31-38.8-.3-22.2 31.8-11.7-37zm6 109l31.6-22.5-.7-38.8 31.2 23.1 36.7-12.7L73.1 521l23.3 31-38.8-.3-22.2 31.8-11.7-37zm25-399l31.6-22.5-.7-38.8 31.2 23.1 36.7-12.7L98.1 122l23.3 31-38.8-.3-22.2 31.8-11.7-37zm-89-49l31.6-22.5-.7-38.8 31.2 23.1 36.7-12.7L9.1 73l23.3 31-38.8-.3-22.2 31.8-11.7-37zm15 126l31.6-22.5-.7-38.8 31.2 23.1 36.7-12.7L24.1 199l23.3 31-38.8-.3-22.2 31.8-11.7-37zm-27 400l31.6-22.5-.7-38.8 31.2 23.1 36.7-12.7L-2.9 599l23.3 31-38.8-.3-22.2 31.8-11.7-37zm108-587L50.2 3.6l-.7-38.8 31.2 23.1 36.7-12.7L105.1 12l23.3 31-38.8-.3-22.2 31.8-11.7-37zm90 49l31.6-22.5-.7-38.8 31.2 23.1 36.7-12.7L195.1 61l23.3 31-38.8-.3-22.2 31.8-11.7-37zm233-40l31.6-22.5-.7-38.8 31.2 23.1 36.7-12.7L428.1 21l23.3 31-38.8-.3-22.2 31.8-11.7-37z"/><use xlinkHref="#E" x="-797" y="173"/><use xlinkHref="#E" x="-864" y="247"/><use xlinkHref="#E" x="-761" y="302"/><path d="M88.3 472l29.7-24.9-3.7-38.6 32.9 20.5 35.6-15.5-9.4 37.7 25.7 29-38.7 2.8-19.6 33.4-14.6-36z"/><use xlinkHref="#E" x="-614" y="329"/><use xlinkHref="#E" x="-695" y="220"/><use xlinkHref="#E" x="-792" y="-58"/><use xlinkHref="#E" x="278" y="62"/><use xlinkHref="#E" x="349" y="155"/><use xlinkHref="#E" x="388" y="47"/><use xlinkHref="#E" x="257" y="-242"/><path d="M232.6 88.1l31.6-22.5-.7-38.8 31.2 23.1 36.7-12.7L319.1 74l23.3 31-38.8-.3-22.2 31.8-11.7-37z"/><use xlinkHref="#E" x="54" y="-313"/><path d="M225.5 525.1l11.7 37 22.2-31.8 38.8.4-23.3-31 12.3-36.8-36.7 12.6-31.2-23.1.7 38.8-31.6 22.6zm567.7 89.8l11.7 37 22.2-31.8 38.8.3-23.3-30.9 12.3-36.8-36.7 12.6-31.2-23.1.7 38.8-31.6 22.5zM471.3 95l11.7 37 22.3-31.7 38.8.3-23.4-31L533 32.8l-36.7 12.6-31.2-23 .7 38.8-31.6 22.5zM331.8 635.3l11.6 36.9 22.3-31.7 38.8.3-23.3-31 12.2-36.8-36.6 12.6-31.2-23 .6 38.8-31.5 22.5zM857.7 708l11.7 37 22.3-31.8 38.7.3-23.3-31 12.3-36.8-36.7 12.7-31.2-23.1.7 38.8-31.6 22.5z"/><use xlinkHref="#G" x="-386" y="306"/><path d="M644.3 476.2l11.7 37 22.3-31.8 38.8.3-23.4-31 12.3-36.8-36.6 12.7-31.2-23.1.6 38.8-31.5 22.5z"/><use xlinkHref="#G" x="-605.3" y="298.6"/><path d="M543.3 653.5l11.7 37 22.3-31.8 38.7.4-23.3-31 12.3-36.8-36.7 12.6-31.2-23 .7 38.7-31.6 22.6z"/><use xlinkHref="#H" x="8" y="209"/><use xlinkHref="#H" x="68" y="306"/><use xlinkHref="#H" x="-57" y="281"/><use xlinkHref="#H" x="-177" y="302"/><use xlinkHref="#H" x="-293" y="306"/><use xlinkHref="#H" x="-398" y="344"/><use xlinkHref="#H" x="-445" y="246"/><use xlinkHref="#H" x="-557" y="321"/><use xlinkHref="#H" x="-898" y="275"/><path d="M-24.5 748l11.6 37 22.3-31.8 38.8.3-23.4-31 12.3-36.8L.5 698.4l-31.2-23.1.6 38.8-31.5 22.5z"/><use xlinkHref="#H" x="-756" y="304"/><path d="M313.4 873.5l16.8 34.9 17.5-34.7 38.4-5.2-27.5-27.3 6.8-38.2-34.5 17.8-34.2-18.3 6.3 38.2-28 26.9z"/><use xlinkHref="#H" x="129" y="196"/><use xlinkHref="#H" x="182" y="286"/><use xlinkHref="#H" x="295" y="279"/><path d="M745.2 722l11.6 36.9 22.3-31.7 38.8.3-23.3-31 12.3-36.8-36.7 12.6-31.2-23 .6 38.8-31.5 22.5z"/><use xlinkHref="#I" x="-39" y="106"/><use xlinkHref="#I" x="76" y="98"/><use xlinkHref="#I" x="135" y="199"/><path d="M647.8 717.2l11.6 37 22.3-31.8 38.8.4-23.3-31 12.3-36.8-36.7 12.6-31.2-23.1.6 38.8-31.5 22.6z"/><use xlinkHref="#F" x="-305.7" y="338.6"/><path d="M584.8 113.7l11.7 37 22.2-31.7 38.8.3-23.3-31 12.3-36.8-36.7 12.6-31.2-23 .7 38.8-31.6 22.5z"/></g><defs ><path id="B" d="M431.3 272l28.1 26.8 4.2-38.6 34.1-18.4-35.4-15.9-6.9-38.1-26.1 28.7-38.4-5.2 19.2 33.7-16.8 34.9z"/><path id="C" d="M549.3 300.8l28.1 26.8 4.2-38.6 34.1-18.4-35.4-15.9-6.9-38.2-26.1 28.8-38.4-5.2 19.2 33.6-16.8 35z"/><path id="D" d="M308.3 232.6l28.1 26.8 4.2-38.5 34.1-18.4-35.4-15.9-6.9-38.2-26.1 28.7-38.4-5.2 19.2 33.7-16.8 35z"/><path id="E" d="M880.6 410.1l31.6-22.5-.7-38.8 31.2 23.1 36.7-12.7-12.3 36.8 23.3 31-38.8-.3-22.2 31.8-11.7-37z"/><path id="F" d="M722.3 387l11.7 37 22.3-31.7 38.8.3-23.4-31 12.3-36.8-36.7 12.6-31.2-23 .7 38.8-31.6 22.5z"/><path id="G" d="M1047 300.4l11.7 37 22.2-31.8 38.8.3-23.3-31 12.3-36.8-36.7 12.7-31.2-23.1.7 38.8-31.6 22.5z"/><path id="H" d="M972.5 517l11.6 37 22.3-31.8 38.8.3-23.4-31 12.3-36.8-36.6 12.7-31.2-23.1.6 38.8-31.5 22.5z"/><path id="I" d="M1083.3 500.1l11.6 37 22.3-31.7 38.8.3-23.3-31 12.3-36.8-36.7 12.6-31.2-23 .7 38.7-31.6 22.6z"/></defs></svg>